# Alias OBJ Model File
# Exported from SketchUp, (c) 2000-2012 Trimble Navigation Limited
# File units = inches

mtllib ShopBarnDoor.mtl

g Mesh1 CrossShortTop1 Group2 Group1 Model

usemtl Color_C08
v 122.515 99 -1.96875
vt 3.55271e-15 84.8383
vn 0 -1.21431e-16 -1
v 125.5 99 -1.96875
vt -2.75 86
v 125.5 91.9332 -1.96875
vt -5.5 79.4902
v 110.32 56 -1.96875
vt -5.5 40.4823
v 107.335 63.0668 -1.96875
vt -3.55271e-15 45.8304
f 1/1/1 2/2/1 3/3/1 4/4/1 5/5/1 

v 122.515 99 -1.21875
vt -33.0143 0.75
vn 2.49282e-08 1 -1.21431e-16
v 125.5 99 -1.21875
vt -35.9996 0.75
vt -35.9996 0
vt -33.0143 0
f 6/6/2 7/7/2 2/8/2 1/9/2 

v 110.32 56 -1.21875
vt 5.5 40.4823
vn 0 1.21431e-16 1
v 125.5 91.9332 -1.21875
vt 5.5 79.4902
vt 2.75 86
vt -3.55271e-15 84.8383
v 107.335 63.0668 -1.21875
vt 3.55271e-15 45.8304
f 8/10/3 9/11/3 7/12/3 6/13/3 10/14/3 

vt 40.4823 0
vn 0.921177 -0.389144 4.7254e-17
vt 79.4902 0
vt 79.4902 0.75
vt 40.4823 0.75
f 4/15/4 3/16/4 9/17/4 8/18/4 

vt 78.1511 0.75
vn 1 -2.83107e-15 3.45127e-31
vt 71.0843 0.75
vt 71.0843 0
vt 78.1511 0
f 7/19/5 9/20/5 3/21/5 2/22/5 

vt -24.2784 0.75
vn -0.921177 -0.389144 4.7254e-17
vt -31.9499 0.75
vt -31.9499 0
vt -24.2784 0
f 8/23/6 10/24/6 5/25/6 4/26/6 

vt -84.8383 0.75
vn -0.921177 0.389144 -4.7254e-17
vt -84.8383 0
vt -45.8304 0
vt -45.8304 0.75
f 6/27/7 1/28/7 5/29/7 10/30/7 

g Mesh2 CrossFull1 Group2 Group1 Model

v 80.6747 13 -1.96875
vt 7.10543e-15 -6.1971
v 47.33 91.9332 -1.96875
vt 1.42109e-14 79.4902
v 47.33 99 -1.96875
v 50.3153 99 -1.96875
vt -5.5 84.8383
v 83.66 20.0668 -1.96875
vt -5.5 -0.849048
v 83.66 13 -1.96875
vt -2.75 -7.35882
f 11/31/1 12/32/1 13/2/1 14/33/1 15/34/1 16/35/1 

v 47.33 91.9332 -1.21875
vt -79.4902 0.75
vt -79.4902 0
vt 6.1971 0
v 80.6747 13 -1.21875
vt 6.1971 0.75
f 17/36/6 12/37/6 11/38/6 18/39/6 

vt -73.2246 0.75
vn -1 -2.31943e-08 2.8165e-24
v 47.33 99 -1.21875
vt -80.2914 0.75
vt -80.2914 0
vt -73.2246 0
f 17/40/8 19/41/8 13/42/8 12/43/8 

v 50.3153 99 -1.21875
vt 5.5 84.8383
vt -1.42109e-14 79.4902
vt -7.10543e-15 -6.1971
v 83.66 13 -1.21875
vt 2.75 -7.35882
v 83.66 20.0668 -1.21875
vt 5.5 -0.849048
f 20/44/3 19/12/3 17/45/3 18/46/3 21/47/3 22/48/3 

vt 30.9331 0.75
vn 1.49009e-08 1 -1.21431e-16
vt 27.9478 0.75
vt 27.9478 0
vt 30.9331 0
f 19/49/9 20/50/9 14/51/9 13/52/9 

vt -0.849048 0
vn 0.921177 0.389144 -4.7254e-17
vt 84.8383 0
vt 84.8383 0.75
vt -0.849048 0.75
f 15/53/10 14/54/10 20/55/10 22/56/10 

vt 1.35817 0.75
vn 1 -1.49009e-08 1.80942e-24
vt -5.70863 0.75
vt -5.70863 0
vt 1.35817 0
f 22/57/11 21/58/11 16/59/11 15/60/11 

vt 5.39688 0.75
vn -1.49009e-08 -1 1.21431e-16
vt 2.41156 0.75
vt 2.41156 0
vt 5.39688 0
f 21/61/12 18/62/12 11/63/12 16/64/12 

g Mesh3 CrossShortTop2 Group2 Group1 Model

v 38.8447 99 -1.96875
v 41.83 99 -1.96875
v 41.83 91.9332 -1.96875
v 26.6503 56 -1.96875
v 23.665 63.0668 -1.96875
f 23/1/1 24/2/1 25/3/1 26/4/1 27/5/1 

v 38.8447 99 -1.21875
v 41.83 99 -1.21875
f 28/6/2 29/7/2 24/8/2 23/9/2 

v 26.6503 56 -1.21875
v 41.83 91.9332 -1.21875
v 23.665 63.0668 -1.21875
f 30/10/3 31/11/3 29/12/3 28/13/3 32/14/3 

f 26/15/4 25/16/4 31/17/4 30/18/4 

vn 1 -3.05311e-15 3.75942e-31
f 29/19/13 31/20/13 25/21/13 24/22/13 

f 30/23/6 32/24/6 27/25/6 26/26/6 

f 28/27/7 23/28/7 27/29/7 32/30/7 

g Mesh4 CrossShortBottom1 Group2 Group1 Model

v 23.665 48.9332 -1.96875
vt -5.5 40.1696
v 8.48531 13 -1.96875
vt -5.5 1.16172
v 5.5 13 -1.96875
vt -2.75 0
v 5.5 20.0668 -1.96875
vt -3.55271e-15 6.50977
v 20.6797 56 -1.96875
vt 4.44089e-15 45.5177
f 33/65/1 34/66/1 35/67/1 36/68/1 37/69/1 

v 8.48531 13 -1.21875
vt 1.16172 0.75
vt 1.16172 0
vt 40.1696 0
v 23.665 48.9332 -1.21875
vt 40.1696 0.75
f 38/70/4 34/71/4 33/72/4 39/73/4 

vt 5.51855 0.75
vn 2.31943e-08 -1 1.21431e-16
v 5.5 13 -1.21875
vt 2.53324 0.75
vt 2.53324 0
vt 5.51855 0
f 38/74/14 40/75/14 35/76/14 34/77/14 

v 5.5 20.0668 -1.21875
vt 3.55271e-15 6.50977
vt 2.75 0
vt 5.5 1.16172
vt 5.5 40.1696
v 20.6797 56 -1.21875
vt -4.44089e-15 45.5177
f 41/78/3 40/79/3 38/80/3 39/81/3 42/82/3 

vt 1.07015 0.75
vt -5.99665 0.75
vt -5.99665 0
vt 1.07015 0
f 40/83/8 41/84/8 36/85/8 35/86/8 

vt -45.5177 0
vt -6.50977 0
vt -6.50977 0.75
vt -45.5177 0.75
f 37/87/7 36/88/7 41/89/7 42/90/7 

vt 31.7319 0.75
vt 24.0605 0.75
vt 24.0605 0
vt 31.7319 0
f 42/91/10 39/92/10 33/93/10 37/94/10 

g Mesh5 CrossFull2 Group2 Group1 Model

v 38.8447 13 -1.96875
v 5.5 91.9332 -1.96875
v 5.5 99 -1.96875
v 8.48531 99 -1.96875
v 41.83 20.0668 -1.96875
v 41.83 13 -1.96875
f 43/31/1 44/32/1 45/2/1 46/33/1 47/34/1 48/35/1 

v 5.5 91.9332 -1.21875
v 38.8447 13 -1.21875
f 49/36/6 44/37/6 43/38/6 50/39/6 

v 5.5 99 -1.21875
f 49/40/8 51/41/8 45/42/8 44/43/8 

v 8.48531 99 -1.21875
v 41.83 13 -1.21875
v 41.83 20.0668 -1.21875
f 52/44/3 51/12/3 49/45/3 50/46/3 53/47/3 54/48/3 

f 51/49/9 52/50/9 46/51/9 45/52/9 

f 47/53/10 46/54/10 52/55/10 54/56/10 

f 54/57/11 53/58/11 48/59/11 47/60/11 

f 53/61/12 50/62/12 43/63/12 48/64/12 

g Mesh6 CrossShortBottom2 Group2 Group1 Model

v 65.495 48.9332 -1.96875
v 50.3153 13 -1.96875
v 47.33 13 -1.96875
v 47.33 20.0668 -1.96875
v 62.5097 56 -1.96875
f 55/65/1 56/66/1 57/67/1 58/68/1 59/69/1 

v 50.3153 13 -1.21875
v 65.495 48.9332 -1.21875
f 60/70/4 56/71/4 55/72/4 61/73/4 

v 47.33 13 -1.21875
f 60/74/14 62/75/14 57/76/14 56/77/14 

v 47.33 20.0668 -1.21875
v 62.5097 56 -1.21875
f 63/78/3 62/79/3 60/80/3 61/81/3 64/82/3 

f 62/83/8 63/84/8 58/85/8 57/86/8 

f 59/87/7 58/88/7 63/89/7 64/90/7 

f 64/91/10 61/92/10 55/93/10 59/94/10 

g Mesh7 CrossShortTop3 Group2 Group1 Model

v 80.6847 99 -1.96875
v 83.67 99 -1.96875
v 83.67 91.9332 -1.96875
v 68.4903 56 -1.96875
v 65.505 63.0668 -1.96875
f 65/1/1 66/2/1 67/3/1 68/4/1 69/5/1 

v 80.6847 99 -1.21875
v 83.67 99 -1.21875
f 70/6/2 71/7/2 66/8/2 65/9/2 

v 68.4903 56 -1.21875
v 83.67 91.9332 -1.21875
v 65.505 63.0668 -1.21875
f 72/10/3 73/11/3 71/12/3 70/13/3 74/14/3 

f 68/15/4 67/16/4 73/17/4 72/18/4 

f 71/19/5 73/20/5 67/21/5 66/22/5 

f 72/23/6 74/24/6 69/25/6 68/26/6 

f 70/27/7 65/28/7 69/29/7 74/30/7 

g Mesh8 CrossShortBottom3 Group2 Group1 Model

v 107.335 48.9332 -1.96875
v 92.1553 13 -1.96875
v 89.17 13 -1.96875
v 89.17 20.0668 -1.96875
v 104.35 56 -1.96875
f 75/65/1 76/66/1 77/67/1 78/68/1 79/69/1 

v 92.1553 13 -1.21875
v 107.335 48.9332 -1.21875
f 80/70/4 76/71/4 75/72/4 81/73/4 

v 89.17 13 -1.21875
f 80/74/14 82/75/14 77/76/14 76/77/14 

v 89.17 20.0668 -1.21875
v 104.35 56 -1.21875
f 83/78/3 82/79/3 80/80/3 81/81/3 84/82/3 

f 82/83/8 83/84/8 78/85/8 77/86/8 

f 79/87/7 78/88/7 83/89/7 84/90/7 

f 84/91/10 81/92/10 75/93/10 79/94/10 

g Mesh9 CrossFull3 Group2 Group1 Model

v 122.515 13 -1.96875
v 89.17 91.9332 -1.96875
v 89.17 99 -1.96875
v 92.1553 99 -1.96875
v 125.5 20.0668 -1.96875
v 125.5 13 -1.96875
f 85/31/1 86/32/1 87/2/1 88/33/1 89/34/1 90/35/1 

v 89.17 91.9332 -1.21875
v 122.515 13 -1.21875
f 91/36/6 86/37/6 85/38/6 92/39/6 

v 89.17 99 -1.21875
f 91/40/8 93/41/8 87/42/8 86/43/8 

v 92.1553 99 -1.21875
v 125.5 13 -1.21875
v 125.5 20.0668 -1.21875
f 94/44/3 93/12/3 91/45/3 92/46/3 95/47/3 96/48/3 

f 93/49/9 94/50/9 88/51/9 87/52/9 

f 89/53/10 88/54/10 94/55/10 96/56/10 

f 96/57/11 95/58/11 90/59/11 89/60/11 

f 95/61/12 92/62/12 85/63/12 90/64/12 

g Mesh10 CrossShortTop4 Group3 Group1 Model

v 122.515 99 -0.75
v 125.5 99 -0.75
v 125.5 91.9332 -0.75
v 110.32 56 -0.75
v 107.335 63.0668 -0.75
f 97/1/1 98/2/1 99/3/1 100/4/1 101/5/1 

v 122.515 99 -1.17684e-14
v 125.5 99 -1.17684e-14
f 102/6/2 103/7/2 98/8/2 97/9/2 

v 110.32 56 -6.55032e-15
v 125.5 91.9332 -1.09912e-14
v 107.335 63.0668 -7.43849e-15
f 104/10/3 105/11/3 103/12/3 102/13/3 106/14/3 

f 100/15/4 99/16/4 105/17/4 104/18/4 

f 103/19/5 105/20/5 99/21/5 98/22/5 

f 104/23/6 106/24/6 101/25/6 100/26/6 

f 102/27/7 97/28/7 101/29/7 106/30/7 

g Mesh11 CrossFull4 Group3 Group1 Model

v 80.6747 13 -0.75
v 47.33 91.9332 -0.75
v 47.33 99 -0.75
v 50.3153 99 -0.75
v 83.66 20.0668 -0.75
v 83.66 13 -0.75
f 107/31/1 108/32/1 109/2/1 110/33/1 111/34/1 112/35/1 

v 47.33 91.9332 -1.08802e-14
v 80.6747 13 -1.33227e-15
f 113/36/6 108/37/6 107/38/6 114/39/6 

v 47.33 99 -1.17684e-14
f 113/40/8 115/41/8 109/42/8 108/43/8 

v 50.3153 99 -1.17684e-14
v 83.66 13 -1.33227e-15
v 83.66 20.0668 -2.10942e-15
f 116/44/3 115/12/3 113/45/3 114/46/3 117/47/3 118/48/3 

f 115/49/9 116/50/9 110/51/9 109/52/9 

f 111/53/10 110/54/10 116/55/10 118/56/10 

f 118/57/11 117/58/11 112/59/11 111/60/11 

f 117/61/12 114/62/12 107/63/12 112/64/12 

g Mesh12 CrossShortTop5 Group3 Group1 Model

v 38.8447 99 -0.75
v 41.83 99 -0.75
v 41.83 91.9332 -0.75
v 26.6503 56 -0.75
v 23.665 63.0668 -0.75
f 119/1/1 120/2/1 121/3/1 122/4/1 123/5/1 

v 38.8447 99 -1.17684e-14
v 41.83 99 -1.17684e-14
f 124/6/2 125/7/2 120/8/2 119/9/2 

v 26.6503 56 -6.55032e-15
v 41.83 91.9332 -1.09912e-14
v 23.665 63.0668 -7.43849e-15
f 126/10/3 127/11/3 125/12/3 124/13/3 128/14/3 

f 122/15/4 121/16/4 127/17/4 126/18/4 

f 125/19/13 127/20/13 121/21/13 120/22/13 

f 126/23/6 128/24/6 123/25/6 122/26/6 

f 124/27/7 119/28/7 123/29/7 128/30/7 

g Mesh13 CrossShortBottom4 Group3 Group1 Model

v 23.665 48.9332 -0.75
v 8.48531 13 -0.75
v 5.5 13 -0.75
v 5.5 20.0668 -0.75
v 20.6797 56 -0.75
f 129/65/1 130/66/1 131/67/1 132/68/1 133/69/1 

v 8.48531 13 -1.33227e-15
v 23.665 48.9332 -5.66214e-15
f 134/70/4 130/71/4 129/72/4 135/73/4 

v 5.5 13 -1.33227e-15
f 134/74/14 136/75/14 131/76/14 130/77/14 

v 5.5 20.0668 -2.22045e-15
v 20.6797 56 -6.55032e-15
f 137/78/3 136/79/3 134/80/3 135/81/3 138/82/3 

f 136/83/8 137/84/8 132/85/8 131/86/8 

f 133/87/7 132/88/7 137/89/7 138/90/7 

f 138/91/10 135/92/10 129/93/10 133/94/10 

g Mesh14 CrossFull5 Group3 Group1 Model

v 38.8447 13 -0.75
v 5.5 91.9332 -0.75
v 5.5 99 -0.75
v 8.48531 99 -0.75
v 41.83 20.0668 -0.75
v 41.83 13 -0.75
f 139/31/1 140/32/1 141/2/1 142/33/1 143/34/1 144/35/1 

v 5.5 91.9332 -1.08802e-14
v 38.8447 13 -1.33227e-15
f 145/36/6 140/37/6 139/38/6 146/39/6 

v 5.5 99 -1.17684e-14
f 145/40/8 147/41/8 141/42/8 140/43/8 

v 8.48531 99 -1.17684e-14
v 41.83 13 -1.33227e-15
v 41.83 20.0668 -2.10942e-15
f 148/44/3 147/12/3 145/45/3 146/46/3 149/47/3 150/48/3 

f 147/49/9 148/50/9 142/51/9 141/52/9 

f 143/53/10 142/54/10 148/55/10 150/56/10 

f 150/57/11 149/58/11 144/59/11 143/60/11 

f 149/61/12 146/62/12 139/63/12 144/64/12 

g Mesh15 CrossShortBottom5 Group3 Group1 Model

v 65.495 48.9332 -0.75
v 50.3153 13 -0.75
v 47.33 13 -0.75
v 47.33 20.0668 -0.75
v 62.5097 56 -0.75
f 151/65/1 152/66/1 153/67/1 154/68/1 155/69/1 

v 50.3153 13 -1.33227e-15
v 65.495 48.9332 -5.66214e-15
f 156/70/4 152/71/4 151/72/4 157/73/4 

v 47.33 13 -1.33227e-15
f 156/74/14 158/75/14 153/76/14 152/77/14 

v 47.33 20.0668 -2.22045e-15
v 62.5097 56 -6.55032e-15
f 159/78/3 158/79/3 156/80/3 157/81/3 160/82/3 

f 158/83/8 159/84/8 154/85/8 153/86/8 

f 155/87/7 154/88/7 159/89/7 160/90/7 

f 160/91/10 157/92/10 151/93/10 155/94/10 

g Mesh16 CrossShortTop6 Group3 Group1 Model

v 80.6847 99 -0.75
v 83.67 99 -0.75
v 83.67 91.9332 -0.75
v 68.4903 56 -0.75
v 65.505 63.0668 -0.75
f 161/1/1 162/2/1 163/3/1 164/4/1 165/5/1 

v 80.6847 99 -1.17684e-14
v 83.67 99 -1.17684e-14
f 166/6/2 167/7/2 162/8/2 161/9/2 

v 68.4903 56 -6.55032e-15
v 83.67 91.9332 -1.09912e-14
v 65.505 63.0668 -7.43849e-15
f 168/10/3 169/11/3 167/12/3 166/13/3 170/14/3 

f 164/15/4 163/16/4 169/17/4 168/18/4 

f 167/19/5 169/20/5 163/21/5 162/22/5 

f 168/23/6 170/24/6 165/25/6 164/26/6 

f 166/27/7 161/28/7 165/29/7 170/30/7 

g Mesh17 CrossShortBottom6 Group3 Group1 Model

v 107.335 48.9332 -0.75
v 92.1553 13 -0.75
v 89.17 13 -0.75
v 89.17 20.0668 -0.75
v 104.35 56 -0.75
f 171/65/1 172/66/1 173/67/1 174/68/1 175/69/1 

v 92.1553 13 -1.33227e-15
v 107.335 48.9332 -5.66214e-15
f 176/70/4 172/71/4 171/72/4 177/73/4 

v 89.17 13 -1.33227e-15
f 176/74/14 178/75/14 173/76/14 172/77/14 

v 89.17 20.0668 -2.22045e-15
v 104.35 56 -6.55032e-15
f 179/78/3 178/79/3 176/80/3 177/81/3 180/82/3 

f 178/83/8 179/84/8 174/85/8 173/86/8 

f 175/87/7 174/88/7 179/89/7 180/90/7 

f 180/91/10 177/92/10 171/93/10 175/94/10 

g Mesh18 CrossFull6 Group3 Group1 Model

v 122.515 13 -0.75
v 89.17 91.9332 -0.75
v 89.17 99 -0.75
v 92.1553 99 -0.75
v 125.5 20.0668 -0.75
v 125.5 13 -0.75
f 181/31/1 182/32/1 183/2/1 184/33/1 185/34/1 186/35/1 

v 89.17 91.9332 -1.08802e-14
v 122.515 13 -1.33227e-15
f 187/36/6 182/37/6 181/38/6 188/39/6 

v 89.17 99 -1.17684e-14
f 187/40/8 189/41/8 183/42/8 182/43/8 

v 92.1553 99 -1.17684e-14
v 125.5 13 -1.33227e-15
v 125.5 20.0668 -2.10942e-15
f 190/44/3 189/12/3 187/45/3 188/46/3 191/47/3 192/48/3 

f 189/49/9 190/50/9 184/51/9 183/52/9 

f 185/53/10 184/54/10 190/55/10 192/56/10 

f 192/57/11 191/58/11 186/59/11 185/60/11 

f 191/61/12 188/62/12 181/63/12 186/64/12 

g Mesh19 Bottom1 Group1 Model

v 125.5 2 -1.96875
vt -5.5 120
v 5.5 2 -1.96875
vt -5.5 0
v 5.5 7.5 -1.96875
vt 0 0
v 125.5 7.5 -1.96875
vt 5.32907e-15 120
f 193/95/1 194/96/1 195/97/1 196/98/1 

vt 120 0
v 125.5 2 -1.21875
vt 120 0.75
v 5.5 2 -1.21875
vt 0 0.75
f 194/97/12 193/99/12 197/100/12 198/101/12 

vt 5.32907e-15 0
v 125.5 7.5 -1.21875
vt 5.32907e-15 0.75
vt -5.5 0.75
f 193/96/11 196/102/11 199/103/11 197/104/11 

vt -120 0
v 5.5 7.5 -1.21875
vt -120 0.75
f 196/105/9 195/97/9 200/101/9 199/106/9 

vn -1 1.49009e-08 -1.80942e-24
vt 5.5 0
vt 5.5 0.75
f 195/97/15 194/107/15 198/108/15 200/101/15 

vt 5.5 120
vt -5.32907e-15 120
f 198/107/3 197/109/3 199/110/3 200/97/3 

g Mesh20 Side1 Group1 Model

v 131 110 -0.75
vt -5.5 108
v 131 2 -0.75
v 125.5 2 -0.75
v 125.5 110 -0.75
vt 0 108
f 201/111/1 202/96/1 203/97/1 204/112/1 

vn 1 0 -0
vt 108 0
v 131 110 -1.31006e-14
vt 108 0.75
v 131 2 -0
f 202/97/16 201/113/16 205/114/16 206/101/16 

vn 0 1 -1.21431e-16
v 125.5 110 -1.31006e-14
f 201/96/17 204/97/17 207/101/17 205/104/17 

vt -108 0
vn -1 0 -0
v 125.5 2 -0
vt -108 0.75
f 204/115/18 203/97/18 208/101/18 207/116/18 

vn 0 -1 1.21431e-16
f 203/97/19 202/107/19 206/108/19 208/101/19 

vt 5.5 108
f 206/107/3 205/117/3 207/112/3 208/97/3 

g Mesh21 Side2 Group1 Model

v 5.5 110 -1.96875
v 5.5 2 -1.96875
v 0 2 -1.96875
v 0 110 -1.96875
f 209/111/1 210/96/1 211/97/1 212/112/1 

v 5.5 110 -1.21875
v 5.5 2 -1.21875
f 210/97/16 209/113/16 213/114/16 214/101/16 

v 0 110 -1.21875
f 209/96/17 212/97/17 215/101/17 213/104/17 

v 0 2 -1.21875
f 212/115/18 211/97/18 216/101/18 215/116/18 

f 211/97/19 210/107/19 214/108/19 216/101/19 

f 214/107/3 213/117/3 215/112/3 216/97/3 

g Mesh22 Side3 Group1 Model

v 5.5 110 -0.75
v 5.5 2 -0.75
v 0 2 -0.75
v 0 110 -0.75
f 217/111/1 218/96/1 219/97/1 220/112/1 

v 5.5 110 -1.31006e-14
v 5.5 2 -0
f 218/97/16 217/113/16 221/114/16 222/101/16 

v 0 110 -1.31006e-14
f 217/96/17 220/97/17 223/101/17 221/104/17 

v 0 2 -0
f 220/115/18 219/97/18 224/101/18 223/116/18 

f 219/97/19 218/107/19 222/108/19 224/101/19 

f 222/107/3 221/117/3 223/112/3 224/97/3 

g Mesh23 Bottom2 Group1 Model

v 125.5 2 -0.75
v 5.5 2 -0.75
v 5.5 7.5 -0.75
v 125.5 7.5 -0.75
f 225/95/1 226/96/1 227/97/1 228/98/1 

v 125.5 2 -0
v 5.5 2 -0
f 226/97/12 225/99/12 229/100/12 230/101/12 

v 125.5 7.5 -6.66134e-16
f 225/96/11 228/102/11 231/103/11 229/104/11 

v 5.5 7.5 -6.66134e-16
f 228/105/9 227/97/9 232/101/9 231/106/9 

f 227/97/15 226/107/15 230/108/15 232/101/15 

f 230/107/3 229/109/3 231/110/3 232/97/3 

g Mesh24 FillerLong_sheet1 Group1 Model

usemtl Color_C07
v 8.88178e-16 2 -1.21875
vt -8.88178e-16 7.10543e-15
vn 9.4739e-16 -1.21431e-16 -1
v 8.88178e-16 8 -1.21875
vt -8.88178e-16 6
v 96 8 -1.21875
vt -96 6
v 96 2 -1.21875
vt -96 0
f 233/118/20 234/119/20 235/120/20 236/121/20 

v 8.88178e-16 8 -0.75
vt -6 0.46875
vn -1 7.40149e-17 -9.4739e-16
vt -6 -4.20726e-31
vt -7.10543e-15 -8.41452e-31
v 0 2 -0.75
vt -7.10543e-15 0.46875
f 237/122/21 234/123/21 233/124/21 238/125/21 

vt -4.44089e-16 0
vn 7.40149e-17 1 -1.21431e-16
vt -4.44089e-16 0.46875
v 96 8 -0.75
vt -96 0.46875
vt -96 9.09495e-14
f 234/126/22 237/127/22 239/128/22 235/129/22 

vt 1.33227e-15 6
vn -9.4739e-16 1.21431e-16 1
vt 4.44089e-16 7.10543e-15
v 96 2 -0.75
vt 96 -6.57384e-32
vt 96 6
f 237/130/23 238/131/23 240/132/23 239/133/23 

vt -5.25908e-31 0.46875
vn -7.40149e-17 -1 1.21431e-16
vt 8.88178e-16 -9.9648e-46
vt 96 9.09495e-14
vt 96 0.46875
f 238/134/24 233/135/24 236/136/24 240/137/24 

vt 6 0
vn 1 -7.40149e-17 9.4739e-16
vt 6 0.46875
vt 7.10543e-15 0.46875
vt 7.10543e-15 0
f 235/138/25 239/139/25 240/140/25 236/141/25 

g Mesh25 FillerShort_sheet1 Group1 Model

v 0 104 -1.21875
vt -60.9823 1.42163e-14
v 0 110 -1.21875
vt -60.9823 6
v 35.0177 110 -1.21875
v 35.0177 104 -1.21875
f 241/142/20 242/143/20 243/120/20 244/121/20 

vt -6 -2.52435e-29
vt -1.87299e-14 -2.52435e-29
v 0 104 -0.75
vt -1.87299e-14 0.46875
f 220/122/21 242/144/21 241/145/21 245/146/21 

vt -60.9823 5.7774e-14
vt -60.9823 0.46875
v 35.0177 110 -0.75
f 242/147/22 220/148/22 246/128/22 243/129/22 

vt 60.9823 6
vt 60.9823 1.42163e-14
v 35.0177 104 -0.75
f 220/149/23 245/150/23 247/132/23 246/133/23 

vt 60.9823 0.46875
vt 60.9823 5.7774e-14
f 245/151/24 241/152/24 244/136/24 247/137/24 

f 243/138/25 246/139/25 247/140/25 244/141/25 

g Mesh26 Side4 Group1 Model

usemtl Color_C08
v 131 110 -1.96875
v 131 2 -1.96875
v 125.5 2 -1.96875
v 125.5 110 -1.96875
f 248/111/1 249/96/1 250/97/1 251/112/1 

v 131 110 -1.21875
v 131 2 -1.21875
f 249/97/16 248/113/16 252/114/16 253/101/16 

v 125.5 110 -1.21875
f 248/96/17 251/97/17 254/101/17 252/104/17 

v 125.5 2 -1.21875
f 251/115/18 250/97/18 255/101/18 254/116/18 

f 250/97/19 249/107/19 253/108/19 255/101/19 

f 253/107/3 252/117/3 254/112/3 255/97/3 

g Mesh27 G_1_2Plywood_sheet1 Group1 Model

usemtl Color_C07
v 44.58 8 -1.21875
v 44.58 104 -1.21875
vt 96 0
v 44.58 104 -0.75
v 44.58 8 -0.75
vt 0 0.46875
f 256/97/16 257/153/16 258/137/16 259/154/16 

v 8.88178e-16 104 -1.21875
vt 0 96
vt -44.58 96
vt -44.58 0
f 234/97/1 260/155/1 257/156/1 256/157/1 

v 8.88178e-16 8 -0.75
v 8.88178e-16 104 -0.75
f 260/121/18 234/97/18 261/154/18 262/128/18 

vt 44.58 0
vt 44.58 0.46875
f 234/97/19 256/158/19 259/159/19 261/154/19 

vt 44.58 96
f 262/155/3 261/97/3 259/158/3 258/160/3 

vt -44.58 0.46875
f 257/157/17 260/97/17 262/154/17 258/161/17 

g Mesh28 FillerShort_sheet2 Group1 Model

v 96 2 -1.21875
v 96 8 -1.21875
v 131.018 8 -1.21875
v 131.018 2 -1.21875
f 263/142/20 264/143/20 265/120/20 266/121/20 

v 96 8 -0.75
v 96 2 -0.75
f 267/122/21 264/144/21 263/145/21 268/146/21 

v 131.018 8 -0.75
f 264/147/22 267/148/22 269/128/22 265/129/22 

v 131.018 2 -0.75
f 267/149/23 268/150/23 270/132/23 269/133/23 

f 268/151/24 263/152/24 266/136/24 270/137/24 

f 265/138/25 269/139/25 270/140/25 266/141/25 

g Mesh29 FillerLong_sheet2 Group1 Model

v 35 104 -1.21875
v 35 110 -1.21875
v 131 110 -1.21875
v 131 104 -1.21875
f 271/118/20 272/119/20 273/120/20 274/121/20 

v 35 110 -0.75
v 35 104 -0.75
f 275/122/21 272/123/21 271/124/21 276/125/21 

v 131 110 -0.75
f 272/126/22 275/127/22 277/128/22 273/129/22 

v 131 104 -0.75
f 275/130/23 276/131/23 278/132/23 277/133/23 

f 276/134/24 271/135/24 274/136/24 278/137/24 

f 273/138/25 277/139/25 278/140/25 274/141/25 

g Mesh30 Bottom3 Group1 Model

usemtl Color_C08
v 125.5 99 -1.96875
v 5.5 99 -1.96875
v 5.5 104.5 -1.96875
v 125.5 104.5 -1.96875
f 279/95/1 280/96/1 281/97/1 282/98/1 

v 125.5 99 -1.21875
v 5.5 99 -1.21875
f 280/97/12 279/99/12 283/100/12 284/101/12 

v 125.5 104.5 -1.21875
f 279/96/11 282/102/11 285/103/11 283/104/11 

v 5.5 104.5 -1.21875
f 282/105/9 281/97/9 286/101/9 285/106/9 

f 281/97/15 280/107/15 284/108/15 286/101/15 

f 284/107/3 283/109/3 285/110/3 286/97/3 

g Mesh31 Bottom4 Group1 Model

v 125.5 104.5 -1.96875
v 5.5 110 -1.96875
f 287/95/1 281/96/1 288/97/1 251/98/1 

v 125.5 104.5 -1.21875
f 281/97/12 287/99/12 289/100/12 286/101/12 

f 287/96/11 251/102/11 254/103/11 289/104/11 

v 5.5 110 -1.21875
f 251/105/9 288/97/9 290/101/9 254/106/9 

f 288/97/15 281/107/15 286/108/15 290/101/15 

f 286/107/3 289/109/3 254/110/3 290/97/3 

g Mesh32 Bottom5 Group1 Model

v 5.5 99 -0.75
v 5.5 104.5 -0.75
v 125.5 104.5 -0.75
f 98/95/1 291/96/1 292/97/1 293/98/1 

v 5.5 99 -1.17684e-14
f 291/97/12 98/99/12 103/100/12 294/101/12 

v 125.5 104.5 -1.24345e-14
f 98/96/11 293/102/11 295/103/11 103/104/11 

v 5.5 104.5 -1.24345e-14
f 293/105/9 292/97/9 296/101/9 295/106/9 

f 292/97/15 291/107/15 294/108/15 296/101/15 

f 294/107/3 103/109/3 295/110/3 296/97/3 

g Mesh33 Bottom6 Group1 Model

v 125.5 104.5 -0.75
f 297/95/1 292/96/1 217/97/1 204/98/1 

v 125.5 104.5 -1.24345e-14
f 292/97/12 297/99/12 298/100/12 296/101/12 

f 297/96/11 204/102/11 207/103/11 298/104/11 

f 204/105/9 217/97/9 221/101/9 207/106/9 

f 217/97/15 292/107/15 296/108/15 221/101/15 

f 296/107/3 298/109/3 207/110/3 221/97/3 

g Mesh34 Bottom7 Group1 Model

v 125.5 7.5 -0.75
v 5.5 7.5 -0.75
v 5.5 13 -0.75
v 125.5 13 -0.75
f 299/95/1 300/96/1 301/97/1 302/98/1 

v 125.5 7.5 -6.66134e-16
v 5.5 7.5 -6.66134e-16
f 300/97/12 299/99/12 303/100/12 304/101/12 

v 125.5 13 -1.33227e-15
f 299/96/11 302/102/11 305/103/11 303/104/11 

v 5.5 13 -1.33227e-15
f 302/105/9 301/97/9 306/101/9 305/106/9 

f 301/97/15 300/107/15 304/108/15 306/101/15 

f 304/107/3 303/109/3 305/110/3 306/97/3 

g Mesh35 Bottom8 Group1 Model

v 125.5 7.5 -1.96875
v 5.5 7.5 -1.96875
v 5.5 13 -1.96875
v 125.5 13 -1.96875
f 307/95/1 308/96/1 309/97/1 310/98/1 

v 125.5 7.5 -1.21875
v 5.5 7.5 -1.21875
f 308/97/12 307/99/12 311/100/12 312/101/12 

v 125.5 13 -1.21875
f 307/96/11 310/102/11 313/103/11 311/104/11 

v 5.5 13 -1.21875
f 310/105/9 309/97/9 314/101/9 313/106/9 

f 309/97/15 308/107/15 312/108/15 314/101/15 

f 312/107/3 311/109/3 313/110/3 314/97/3 

g Mesh36 CenterVertical1 Group1 Model

v 89.17 99 -1.96875
vt -5.5 86
v 89.17 13 -1.96875
v 83.67 13 -1.96875
v 83.67 99 -1.96875
vt 0 86
f 315/162/1 316/96/1 317/97/1 318/163/1 

vt 86 0
v 89.17 99 -1.21875
vt 86 0.75
v 89.17 13 -1.21875
f 316/97/16 315/164/16 319/165/16 320/101/16 

v 83.67 99 -1.21875
f 315/96/17 318/97/17 321/101/17 319/104/17 

vt -86 0
v 83.67 13 -1.21875
vt -86 0.75
f 318/166/18 317/97/18 322/101/18 321/167/18 

f 317/97/19 316/107/19 320/108/19 322/101/19 

vt 5.5 86
f 320/107/3 319/168/3 321/163/3 322/97/3 

g Mesh37 CenterVertical2 Group1 Model

v 47.33 99 -1.96875
v 47.33 13 -1.96875
v 41.83 13 -1.96875
v 41.83 99 -1.96875
f 323/162/1 324/96/1 325/97/1 326/163/1 

v 47.33 99 -1.21875
v 47.33 13 -1.21875
f 324/97/16 323/164/16 327/165/16 328/101/16 

v 41.83 99 -1.21875
f 323/96/17 326/97/17 329/101/17 327/104/17 

v 41.83 13 -1.21875
f 326/166/18 325/97/18 330/101/18 329/167/18 

f 325/97/19 324/107/19 328/108/19 330/101/19 

f 328/107/3 327/168/3 329/163/3 330/97/3 

g Mesh38 G_1_2Plywood_sheet2 Group1 Model

usemtl Color_C07
v 131 8 -1.21875
v 131 8 -0.75
f 331/97/16 274/153/16 278/137/16 332/154/16 

v 86.42 8 -1.21875
v 86.42 104 -1.21875
f 333/97/1 334/155/1 274/156/1 331/157/1 

v 86.42 8 -0.75
v 86.42 104 -0.75
f 334/121/18 333/97/18 335/154/18 336/128/18 

f 333/97/19 331/158/19 332/159/19 335/154/19 

f 336/155/3 335/97/3 332/158/3 278/160/3 

f 274/157/17 334/97/17 336/154/17 278/161/17 

g Mesh39 CenterVertical3 Group1 Model

usemtl Color_C08
v 89.17 99 -0.75
v 83.67 13 -0.75
f 337/162/1 173/96/1 338/97/1 162/163/1 

v 89.17 99 -1.17684e-14
f 173/97/16 337/164/16 339/165/16 178/101/16 

f 337/96/17 162/97/17 167/101/17 339/104/17 

v 83.67 13 -1.33227e-15
f 162/166/18 338/97/18 340/101/18 167/167/18 

f 338/97/19 173/107/19 178/108/19 340/101/19 

f 178/107/3 339/168/3 167/163/3 340/97/3 

g Mesh40 CenterVertical4 Group1 Model

v 47.33 99 -0.75
v 47.33 13 -0.75
v 41.83 99 -0.75
f 341/162/1 342/96/1 144/97/1 343/163/1 

v 47.33 99 -1.17684e-14
v 47.33 13 -1.33227e-15
f 342/97/16 341/164/16 344/165/16 345/101/16 

v 41.83 99 -1.17684e-14
f 341/96/17 343/97/17 346/101/17 344/104/17 

f 343/166/18 144/97/18 149/101/18 346/167/18 

f 144/97/19 342/107/19 345/108/19 149/101/19 

f 345/107/3 344/168/3 346/163/3 149/97/3 

g Mesh41 G_1_2PlywoodCenter_sheet1 Group1 Model

usemtl Color_C07
v 86.42 8 -1.21875
v 86.42 104 -1.21875
v 86.42 104 -0.75
v 86.42 8 -0.75
f 347/97/16 348/153/16 349/137/16 350/154/16 

v 44.58 8 -1.21875
vt 0.92 0
vt 0.92 96
vt -40.92 96
vt -40.92 0
f 351/169/1 257/170/1 348/171/1 347/172/1 

v 44.58 8 -0.75
f 257/121/18 351/97/18 352/154/18 258/128/18 

vt -0.92 0
vt 40.92 0
vt 40.92 0.46875
vt -0.92 0.46875
f 351/173/19 347/174/19 350/175/19 352/176/19 

vt -0.92 96
vt 40.92 96
f 258/177/3 352/173/3 350/174/3 349/178/3 

vt 0.92 0.46875
vt -40.92 0.46875
f 348/172/17 257/169/17 258/179/17 349/180/17 

